Coordinates
version=1
nRows=34
nColumns=33
inDegrees=yes

Units are S.I. units (second, meters, Newtons, ...)
Angles are in degrees.

endheader
time	ground_thorax_rot_x	ground_thorax_rot_y	ground_thorax_rot_z	ground_thorax_tx	ground_thorax_ty	ground_thorax_tz	clav_prot_r	clav_elev_r	scapula_abduction_r	scapula_elevation_r	scapula_upward_rot_r	scapula_winging_r	shoulder_elv_r	plane_of_elev_r	axial_rot_r	elbow_flexion_r	pro_sup_r	wrist_flex_r	wrist_dev_r	clav_prot_l	clav_elev_l	scapula_abduction_l	scapula_elevation_l	scapula_upward_rot_l	scapula_winging_l	shoulder_elv_l	plane_of_elev_l	axial_rot_l	elbow_flexion_l	pro_sup_l	wrist_flex_l	wrist_dev_l	
10.4700	40.212413	13.001041	15.947856	-213.905654	835.991482	4.551848	12.949465	40.300289	39.917041	45.000000	-28.791763	-2610.987329	-1372.339207	33.630548	44.964330	1813.022477	385.812264	19.645652	5.808390	-1.878381	-45.000000	-41.697845	45.000000	13.504626	2271.166147	-4592.491721	13.756445	180.000000	1085.933111	-150.197299	11.322271	-18.434765	
10.4800	40.200533	12.957671	15.947295	-215.155950	836.656580	4.488309	12.926160	40.244706	39.849164	45.000000	-28.979494	-2611.005210	-1372.249340	33.648322	44.969273	1813.035165	385.632181	19.649466	5.773673	-1.824192	-45.000000	-41.568122	45.000000	13.193193	2271.099691	-4592.397035	13.760644	180.000000	1085.916206	-150.252206	11.313594	-18.491810	
10.4900	40.188745	12.910242	15.941929	-216.386895	837.308178	4.421191	12.901637	40.187446	39.782843	45.000000	-29.160931	-2611.025656	-1372.164726	33.665775	44.983393	1813.049907	385.460253	19.653105	5.730345	-1.769810	-45.000000	-41.439374	45.000000	12.883463	2271.034576	-4592.307703	13.764417	180.000000	1085.897731	-150.299914	11.302357	-18.550242	
10.5000	40.175244	12.864678	15.939983	-217.601837	837.946538	4.351406	12.877710	40.135627	39.713744	45.000000	-29.340266	-2611.044332	-1372.082281	33.681246	45.009388	1813.069198	385.301830	19.659170	5.681730	-1.716861	-45.000000	-41.312040	45.000000	12.573670	2270.973824	-4592.217844	13.768454	180.000000	1085.879828	-150.341489	11.288040	-18.609240	
10.5100	40.161214	12.815478	15.935217	-218.803364	838.571420	4.280232	12.852764	40.080049	39.647581	45.000000	-29.516142	-2611.064246	-1372.006922	33.695649	45.044472	1813.089279	385.161890	19.665213	5.623628	-1.662541	-45.000000	-41.186143	45.000000	12.262128	2270.914992	-4592.128922	13.772404	180.000000	1085.858889	-150.378454	11.270791	-18.669290	
10.5200	40.145838	12.768406	15.932338	-219.993514	839.182214	4.209245	12.828048	40.030128	39.577898	45.000000	-29.691147	-2611.082700	-1371.933389	33.709210	45.091364	1813.113699	385.046609	19.673911	5.560105	-1.608715	-45.000000	-41.059331	45.000000	11.949584	2270.858745	-4592.039503	13.777781	180.000000	1085.838551	-150.411768	11.251229	-18.729818	
10.5300	40.130547	12.718666	15.925986	-221.173720	839.777953	4.140192	12.802324	39.975107	39.512513	45.000000	-29.863607	-2611.103327	-1371.866045	33.721049	45.146581	1813.138565	384.961189	19.682112	5.488099	-1.554509	-45.000000	-40.934975	45.000000	11.636102	2270.804018	-4591.949793	13.782998	180.000000	1085.816301	-150.442968	11.229240	-18.790255	
10.5400	40.115448	12.672963	15.921903	-222.344998	840.357481	4.074798	12.777598	39.927454	39.443818	45.000000	-30.037878	-2611.122088	-1371.796656	33.733374	45.212404	1813.164397	384.911247	19.691476	5.412812	-1.500654	-45.000000	-40.811098	45.000000	11.322782	2270.751771	-4591.858869	13.789084	180.000000	1085.799391	-150.472532	11.206268	-18.849347	
10.5500	40.101690	12.625646	15.916225	-223.507844	840.919571	4.014578	12.752541	39.871369	39.383773	45.000000	-30.212932	-2611.142732	-1371.732019	33.742433	45.282803	1813.187245	384.899771	19.697985	5.330956	-1.446323	-45.000000	-40.695001	45.000000	11.007529	2270.702995	-4591.765190	13.792434	180.000000	1085.782807	-150.502161	11.181486	-18.906358	
10.5600	40.088904	12.584545	15.914691	-224.662306	841.463133	3.960678	12.729726	39.825303	39.319287	45.000000	-30.393914	-2611.159392	-1371.662288	33.754099	45.359973	1813.206686	384.929884	19.703363	5.248610	-1.390609	-45.000000	-40.580259	45.000000	10.690155	2270.657054	-4591.670430	13.796446	180.000000	1085.775448	-150.531632	11.157315	-18.960611	
10.5700	40.078488	12.541483	15.910359	-225.807851	841.987337	3.913810	12.706419	39.766197	39.266994	45.000000	-30.576993	-2611.179118	-1371.597600	33.760807	45.436326	1813.223306	385.001059	19.704162	5.160961	-1.334301	-45.000000	-40.476126	45.000000	10.368847	2270.614582	-4591.574309	13.795729	180.000000	1085.766600	-150.562657	11.132052	-19.012366	
10.5800	40.069157	12.507477	15.912014	-226.943483	842.491701	3.874272	12.686487	39.720588	39.208092	45.000000	-30.768056	-2611.193993	-1371.525812	33.771224	45.515517	1813.235120	385.113965	19.702287	5.074805	-1.275720	-45.000000	-40.372698	45.000000	10.044451	2270.574812	-4591.478536	13.796166	180.000000	1085.769264	-150.593711	11.108736	-19.060655	
10.5900	40.062707	12.469787	15.908177	-228.067777	842.976036	3.842048	12.665838	39.659277	39.161149	45.000000	-30.959923	-2611.213298	-1371.459769	33.778008	45.589563	1813.246605	385.264905	19.695148	4.983824	-1.216328	-45.000000	-40.278851	45.000000	9.716964	2270.537870	-4591.384298	13.791996	180.000000	1085.767649	-150.626178	11.085049	-19.106951	
10.6000	40.056278	12.442242	15.909791	-229.179171	843.440346	3.816930	12.648845	39.617268	39.100891	45.000000	-31.157702	-2611.227433	-1371.386247	33.791363	45.664735	1813.258009	385.452030	19.686087	4.895643	-1.155527	-45.000000	-40.179400	45.000000	9.390666	2270.502750	-4591.293114	13.792172	180.000000	1085.777470	-150.657302	11.064229	-19.150339	
10.6100	40.052283	12.407771	15.901173	-230.276142	843.884674	3.798627	12.629904	39.554231	39.053636	45.000000	-31.352573	-2611.248581	-1371.322276	33.800288	45.733359	1813.274243	385.669787	19.671952	4.801636	-1.096139	-45.000000	-40.088226	45.000000	9.068122	2270.469801	-4591.205755	13.787790	180.000000	1085.776798	-150.688359	11.042601	-19.192944	
10.6200	40.046627	12.386353	15.902251	-231.357452	844.308974	3.786849	12.615238	39.514173	38.992867	45.000000	-31.553973	-2611.262587	-1371.250808	33.813066	45.803600	1813.288659	385.917823	19.655227	4.710951	-1.036819	-45.000000	-39.992413	45.000000	8.751588	2270.440123	-4591.118571	13.788342	180.000000	1085.789655	-150.715063	11.023422	-19.232044	
10.6300	40.043706	12.356535	15.892676	-232.422112	844.713017	3.781348	12.598779	39.451326	38.945326	45.000000	-31.752242	-2611.282963	-1371.188819	33.823013	45.867075	1813.305671	386.192365	19.632388	4.613271	-0.978478	-45.000000	-39.906146	45.000000	8.440338	2270.412786	-4591.035292	13.784165	180.000000	1085.792426	-150.738263	11.003140	-19.270766	
10.6400	40.039326	12.340917	15.893507	-233.469378	845.096415	3.781958	12.586213	39.415545	38.881148	45.000000	-31.955259	-2611.295745	-1371.117662	33.836829	45.932736	1813.324096	386.494515	19.608035	4.518221	-0.921258	-45.000000	-39.812544	45.000000	8.135375	2270.388234	-4590.954288	13.785694	180.000000	1085.809691	-150.753298	10.984932	-19.307106	
10.6500	40.037913	12.315194	15.881561	-234.498500	845.458700	3.788610	12.571272	39.350811	38.832568	45.000000	-32.153371	-2611.316809	-1371.058600	33.847195	45.992043	1813.346142	386.821925	19.577103	4.414065	-0.865504	-45.000000	-39.730390	45.000000	7.834844	2270.365867	-4590.879295	13.780982	180.000000	1085.811983	-150.761794	10.964076	-19.344691	
10.6600	40.033816	12.307014	15.885293	-235.508531	845.799448	3.801341	12.560510	39.316829	38.768760	45.000000	-32.357552	-2611.327790	-1370.989497	33.857937	46.053657	1813.366860	387.177614	19.544431	4.312855	-0.809958	-45.000000	-39.642622	45.000000	7.536566	2270.347316	-4590.804338	13.782074	180.000000	1085.830558	-150.758824	10.944004	-19.380162	
10.6700	40.033223	12.287423	15.875733	-236.498022	846.118375	3.820246	12.547843	39.251962	38.720652	45.000000	-32.556225	-2611.346441	-1370.933098	33.868347	46.107088	1813.388053	387.558960	19.504473	4.202964	-0.753822	-45.000000	-39.567672	45.000000	7.237361	2270.330656	-4590.736351	13.776395	180.000000	1085.833913	-150.746791	10.920413	-19.417698	
10.6800	40.029882	12.285456	15.881729	-237.464944	846.415401	3.845392	12.538611	39.221078	38.656875	45.000000	-32.758644	-2611.354391	-1370.866239	33.878034	46.160239	1813.411873	387.966119	19.464851	4.097671	-0.697515	-45.000000	-39.484997	45.000000	6.936661	2270.317339	-4590.670262	13.776905	180.000000	1085.852676	-150.721690	10.896901	-19.454256	
10.6900	40.028764	12.271277	15.872838	-238.406718	846.690619	3.876670	12.527580	39.153545	38.612078	45.000000	-32.953604	-2611.372007	-1370.816024	33.886562	46.201710	1813.435694	388.393531	19.418131	3.985337	-0.640432	-45.000000	-39.417978	45.000000	6.633294	2270.305430	-4590.612142	13.769581	180.000000	1085.851209	-150.687542	10.868624	-19.493654	
10.7000	40.021829	12.276705	15.883970	-239.320489	846.944172	3.913673	12.520399	39.124123	38.554048	45.000000	-33.153200	-2611.376135	-1370.754388	33.891713	46.239490	1813.459019	388.838966	19.372765	3.880757	-0.582121	-45.000000	-39.344434	45.000000	6.327033	2270.296944	-4590.552945	13.770114	180.000000	1085.867153	-150.640689	10.840205	-19.531355	
10.7100	40.016476	12.268792	15.878773	-240.203409	847.176065	3.955607	12.511809	39.057198	38.513141	45.000000	-33.343193	-2611.391031	-1370.709085	33.900284	46.262048	1813.481282	389.293117	19.321591	3.771165	-0.523025	-45.000000	-39.285653	45.000000	6.019601	2270.288068	-4590.503651	13.763788	180.000000	1085.863584	-150.586136	10.807831	-19.571802	
10.7200	40.005036	12.279929	15.892853	-241.052985	847.385969	4.001331	12.506099	39.032758	38.456148	45.000000	-33.534996	-2611.392493	-1370.650148	33.905878	46.279970	1813.508396	389.749581	19.275572	3.670288	-0.464665	-45.000000	-39.214487	45.000000	5.715436	2270.282019	-4590.455062	13.767649	180.000000	1085.878057	-150.521037	10.776411	-19.610601	
10.7300	39.995887	12.275715	15.886882	-241.867185	847.573081	4.049482	12.498988	38.964230	38.416562	45.000000	-33.714746	-2611.408086	-1370.611557	33.916493	46.283298	1813.534285	390.197690	19.225193	3.564089	-0.408701	-45.000000	-39.158821	45.000000	5.418542	2270.275492	-4590.417720	13.762896	180.000000	1085.868906	-150.451536	10.741419	-19.652154	
10.7400	39.981104	12.290483	15.902781	-242.644336	847.736049	4.098718	12.494809	38.940055	38.362861	45.000000	-33.897786	-2611.407571	-1370.560295	33.920717	46.284164	1813.562718	390.632568	19.181785	3.466548	-0.354685	-45.000000	-39.091815	45.000000	5.129894	2270.274175	-4590.378212	13.767764	180.000000	1085.880064	-150.374139	10.708220	-19.690699	
10.7500	39.969910	12.287440	15.898011	-243.382732	847.873016	4.147950	12.489761	38.867628	38.326370	45.000000	-34.069102	-2611.421155	-1370.533256	33.932460	46.272165	1813.587173	391.044858	19.134778	3.363168	-0.304008	-45.000000	-39.043320	45.000000	4.849918	2270.273299	-4590.349541	13.761857	180.000000	1085.867472	-150.295222	10.672265	-19.731295	
10.7600	39.951550	12.299772	15.915658	-244.080362	847.981744	4.196553	12.488526	38.832821	38.279061	45.000000	-34.245990	-2611.418313	-1370.499794	33.936885	46.259084	1813.616651	391.431963	19.096105	3.267851	-0.254811	-45.000000	-38.988581	45.000000	4.576204	2270.279234	-4590.316702	13.763450	180.000000	1085.869659	-150.211644	10.637718	-19.768751	
10.7700	39.933834	12.298621	15.921321	-244.734544	848.059783	4.244451	12.486095	38.763738	38.244128	45.000000	-34.414036	-2611.422061	-1370.487888	33.945763	46.236563	1813.642797	391.785375	19.056485	3.169163	-0.207177	-45.000000	-38.945451	45.000000	4.309034	2270.286387	-4590.293276	13.759856	180.000000	1085.855721	-150.128506	10.601997	-19.806932	
10.7800	39.909007	12.314681	15.952358	-245.341897	848.104671	4.292080	12.486629	38.737568	38.195028	45.000000	-34.584015	-2611.408151	-1370.466536	33.947241	46.216041	1813.674339	392.099667	19.026829	3.080426	-0.161320	-45.000000	-38.890577	45.000000	4.048186	2270.299597	-4590.268648	13.767104	180.000000	1085.860424	-150.044017	10.568956	-19.841145	
10.7900	39.885612	12.322195	15.976616	-245.898498	848.114100	4.340229	12.484870	38.688844	38.153753	45.000000	-34.741134	-2611.398683	-1370.460420	33.952046	46.191763	1813.701425	392.364315	18.997844	2.992291	-0.116477	-45.000000	-38.838022	45.000000	3.796528	2270.314168	-4590.256140	13.774272	180.000000	1085.856162	-149.963673	10.536524	-19.874882	
10.8000	39.854700	12.345323	16.020512	-246.400140	848.086163	4.389818	12.487630	38.671586	38.098525	45.000000	-34.894287	-2611.378946	-1370.450437	33.953736	46.173158	1813.734799	392.574424	18.978441	2.916424	-0.076078	-45.000000	-38.778909	45.000000	3.554514	2270.333345	-4590.243396	13.789465	180.000000	1085.860042	-149.887731	10.505475	-19.905233	
